<?xml version="1.0" standalone="no"?>
<!DOCTYPE svg PUBLIC "-//W3C//DTD SVG 20010904//EN"
 "http://www.w3.org/TR/2001/REC-SVG-20010904/DTD/svg10.dtd">
<svg version="1.0" xmlns="http://www.w3.org/2000/svg"
 width="16.000000pt" height="16.000000pt" viewBox="0 0 16.000000 16.000000"
 preserveAspectRatio="xMidYMid meet">
<metadata>
Created by potrace 1.11, written by Peter Selinger 2001-2013
</metadata>
<g transform="translate(0.000000,16.000000) scale(0.022857,-0.022857)"
fill="#000000" stroke="none">
<path d="M0 610 l0 -90 57 0 c53 0 55 -1 40 -17 -14 -17 -12 -27 26 -126 23
-59 46 -106 51 -104 8 3 86 200 86 219 0 5 -10 13 -22 18 -18 7 -11 9 31 9
l54 1 -20 -22 c-11 -13 -36 -66 -56 -118 -49 -131 -73 -187 -86 -195 -13 -7
-21 11 -90 189 -25 66 -52 121 -58 124 -10 3 -13 -51 -13 -247 l0 -251 350 0
350 0 0 95 0 95 -47 0 c-44 1 -46 2 -29 15 17 13 18 23 12 112 -11 149 -17
147 -88 -37 -18 -47 -37 -85 -42 -85 -6 0 -28 46 -51 102 -22 56 -43 105 -47
108 -6 7 -12 -27 -23 -127 -6 -51 -4 -57 14 -63 38 -12 22 -25 -31 -25 -52 0
-53 1 -31 18 20 15 24 32 35 144 11 119 10 129 -7 148 -18 20 -18 20 23 20 38
0 42 -3 51 -32 5 -18 25 -73 44 -121 25 -65 36 -85 44 -75 13 17 83 196 83
213 0 7 14 15 30 17 34 5 44 0 31 -16 -8 -11 1 -123 18 -206 6 -33 9 16 10
178 l1 222 -350 0 -350 0 0 -90z"/>
</g>
</svg>
